<?xml version="1.0" encoding="UTF-8"?>
<!DOCTYPE svg PUBLIC "-//W3C//DTD SVG 1.1//EN" "http://www.w3.org/Graphics/SVG/1.1/DTD/svg11.dtd">
<svg xmlns="http://www.w3.org/2000/svg" xmlns:xlink="http://www.w3.org/1999/xlink" version="1.1"
    width="145px" height="107px" viewBox="-0.5 -0.5 145 107" class="ge-export-svg-dark">

    <g>
        <g>
            <path
                d="M 12 78 L 12 88 Q 12 98 22 98 L 62 98 Q 72 98 72 88 L 72 18 Q 72 8 82 8 L 122 8 Q 132 8 132 18 L 132 28"
                fill="none" stroke="#bfd6e9" stroke-width="16" stroke-miterlimit="10"
                pointer-events="stroke" />
        </g>
        <g>
            <path d="M 51 98 L 136 98" fill="none" stroke="#bfd6e9" stroke-width="16"
                stroke-miterlimit="10" pointer-events="stroke" />
        </g>
        <g>
            <path d="M 8 8 L 82 8" fill="none" stroke="#bfd6e9" stroke-width="16"
                stroke-miterlimit="10" pointer-events="stroke" />
        </g>
        <g>
            <path d="M 92 98 L 82 98 Q 72 98 72 88 L 72 68" fill="none" stroke="#bfd6e9"
                stroke-width="16" stroke-miterlimit="10" pointer-events="stroke" />
        </g>
        <g>
            <path d="M 72 38 L 72 18 Q 72 8 62 8 L 52 8" fill="none" stroke="#bfd6e9"
                stroke-width="16" stroke-miterlimit="10" pointer-events="stroke" />
        </g>
        <g>
            <path d="M 72 98 L 72 88" fill="none" stroke="#bfd6e9" stroke-width="16"
                stroke-miterlimit="10" pointer-events="stroke" />
        </g>
        <g>
            <path d="M 72 18 L 72 8" fill="none" stroke="#bfd6e9" stroke-width="16"
                stroke-miterlimit="10" pointer-events="stroke" />
        </g>
    </g>
</svg>