<?xml version="1.0" encoding="UTF-8" standalone="no"?>
<!DOCTYPE svg PUBLIC "-//W3C//DTD SVG 1.1//EN" "http://www.w3.org/Graphics/SVG/1.1/DTD/svg11.dtd">
<svg xmlns="http://www.w3.org/2000/svg" version="1.1" viewBox="0.00 0.00 304.00 488.00">
  <path fill="#bfd6e9"
    d="
  M 297.85 0.00
  L 304.00 0.00
  L 304.00 0.50
  Q 303.70 0.15 303.25 0.18
  Q 300.53 0.34 297.85 0.00
  Z"
  />
  <path fill="#bfd6e9"
    d="
  M 304.00 1.07
  L 304.00 350.56
  Q 303.59 348.85 303.69 347.09
  Q 303.70 346.92 303.53 346.90
  L 303.52 346.90
  Q 303.35 346.88 303.33 347.06
  C 302.96 349.83 302.98 352.67 302.48 355.37
  C 297.67 381.20 288.94 404.75 273.58 425.17
  Q 250.90 455.32 217.63 471.76
  Q 203.37 478.80 183.00 483.45
  Q 173.91 485.52 163.41 486.01
  C 133.73 487.39 103.81 481.68 78.33 467.39
  Q 51.69 452.44 32.90 429.40
  C 12.90 404.87 0.41 370.99 1.82 338.62
  C 2.40 325.11 3.80 311.56 8.95 299.07
  C 11.08 293.91 12.80 288.45 15.66 283.68
  Q 21.37 274.15 29.99 263.78
  Q 42.54 248.70 56.97 239.98
  C 70.47 231.82 83.82 226.40 99.61 224.44
  A 0.34 0.34 0.0 0 1 99.99 224.78
  L 100.00 255.06
  A 0.87 0.87 0.0 0 1 99.26 255.92
  Q 84.96 258.03 72.84 266.05
  Q 38.29 288.89 33.05 329.68
  Q 32.01 337.76 32.60 349.65
  Q 33.66 371.14 44.33 390.92
  C 62.01 423.68 92.49 446.95 129.47 453.36
  C 164.26 459.39 201.00 451.69 227.91 428.86
  C 234.96 422.89 241.30 415.27 247.73 408.15
  C 251.38 404.10 253.75 398.95 256.45 394.31
  C 259.87 388.44 262.08 382.28 264.99 376.26
  Q 266.91 372.27 268.33 367.13
  C 271.80 354.57 274.78 341.91 274.78 329.50
  Q 274.81 256.73 274.91 184.00
  Q 275.02 106.90 274.83 32.03
  Q 274.83 31.34 274.14 31.34
  Q 228.94 31.30 188.03 31.19
  C 175.67 31.16 162.79 24.73 157.90 12.65
  Q 155.90 7.70 155.21 1.81
  A 0.60 0.59 86.6 0 1 155.80 1.14
  L 304.00 1.07
  Z"
  />
  <path fill="#bfd6e9"
    d="
  M 103.93 367.51
  C 120.15 390.80 150.38 397.91 175.43 386.28
  Q 186.48 381.15 193.21 373.40
  Q 196.70 369.39 201.44 362.02
  Q 204.19 357.75 205.84 353.63
  C 207.34 349.87 209.37 346.02 210.47 342.27
  Q 213.51 331.86 213.50 323.21
  Q 213.46 201.88 213.63 80.51
  Q 213.64 73.40 213.77 65.73
  Q 213.77 65.19 214.31 65.19
  L 242.02 64.95
  A 0.73 0.73 0.0 0 1 242.76 65.67
  Q 242.85 82.47 242.86 101.25
  Q 242.90 205.47 242.80 314.88
  Q 242.79 322.07 242.68 329.99
  Q 242.57 337.71 240.13 349.19
  C 234.84 374.08 219.60 395.55 198.44 409.18
  C 179.51 421.36 157.26 424.27 134.89 421.12
  C 116.33 418.50 99.20 408.44 86.31 394.97
  Q 65.04 372.73 63.56 341.01
  Q 63.31 335.57 64.96 329.36
  C 66.50 323.58 68.13 317.59 71.43 312.73
  Q 79.54 300.77 92.47 294.86
  Q 93.37 294.45 93.38 295.44
  Q 93.62 313.29 93.25 332.49
  Q 92.89 351.64 103.93 367.51
  Z"
  />
</svg>