<?xml version="1.0" encoding="UTF-8"?>
<svg id="Layer_2" data-name="Layer 2" xmlns="http://www.w3.org/2000/svg" viewBox="0 0 567.29 539.01">
  <defs>
    <style>
      .cls-1 {
        fill: #ee6517;
      }

      .cls-2 {
        fill: #fbfaf9;
      }
    </style>
  </defs>
  <g id="Layer_1-2" data-name="Layer 1">
    <g>
      <path class="cls-2" d="m295.02,425.84h-21.74c-8.99-19.8-18.07-39.68-27-59.63-.77-1.72-.8-3.88-.81-5.84-.08-22.81-.15-45.62-.04-68.43.02-3.78-.87-6.14-4.21-8.53-34.95-25.04-69.66-50.4-104.52-75.57-35.2-25.41-70.5-50.71-105.75-76.06-.52-.38-.99-.84-1.66-1.41,15.03-31.83,34.9-60.06,60.28-84.67,51.52,55.92,102.83,111.62,154.08,167.25,2.95-2.81,5.91-5.63,9.22-8.78-19.44-19.54-29.91-42.91-27.28-70.22,2.62-27.23,15.79-48.63,41.39-61.43-3.01-12.28-6.14-24.8-9.08-37.36-.33-1.39,0-3.29.73-4.52,5.45-9.1,11.21-18.02,16.59-27.16,1.49-2.54,3.14-3.62,5.93-3.25.65.09,1.35.1,1.99,0,5.99-1.02,9.7,1.33,12.5,6.84,3.45,6.78,7.75,13.14,11.93,19.52,2.66,4.07,3.29,7.85,1.85,12.77-3.17,10.82-5.44,21.9-8.08,32.88,25.2,12.63,38.59,33.41,40.79,61.31,2.17,27.5-6.43,51.17-27.22,70.4,2.89,3.14,5.68,6.16,8.91,9.68,51.58-55.95,103.02-111.75,154.9-168.03,25.78,24.43,45.01,53.07,60.44,85-9.27,6.77-18.45,13.53-27.68,20.22-26.69,19.36-53.38,38.72-80.09,58.05-35.09,25.41-70.17,50.84-105.36,76.14-2.8,2.01-3.67,4.12-3.66,7.41.09,22.64.09,45.28-.13,67.93-.03,3.35-.8,6.93-2.16,9.99-8.23,18.59-16.73,37.05-25.1,55.49Z"/>
      <path class="cls-1" d="m20.17,150.87c12.36,8.85,24.69,17.6,36.86,26.56.9.66,1.33,2.98.95,4.22-5.86,19.09-9.92,38.49-10.56,58.52-.2,6.27-1.47,12.64-.78,18.79,1.9,16.9,2.97,34.14,7.23,50.49,21.1,80.9,71.09,136.86,148.94,167.22,15.61,6.09,32.31,10.09,48.88,12.78,14.92,2.42,30.47,3.34,45.51,2.1,61.55-5.09,114.97-28.43,157.92-73.72,25.11-26.47,43.8-56.95,54.37-91.87,4.53-14.95,7.09-30.59,9.34-46.09,1.7-11.71,2.48-23.74,1.92-35.55-.99-20.88-3.75-41.64-10.24-61.67-1.01-3.13-.3-4.7,2.32-6.51,11.89-8.2,23.62-16.64,35.43-25,33.25,78.76,31.16,216.69-73.73,313.63-100.67,93.05-254.96,99.44-363.79,14.62C-4.07,389.92-20.54,247.77,20.17,150.87Z"/>
      <path class="cls-2" d="m342.27,417.83c0-22.92-.03-45.39.08-67.85,0-1.24.88-2.87,1.87-3.65,37.92-29.73,75.89-59.37,113.87-89.02.09-.07.3.02,1.08.09-1.2,38.12-13.2,72.29-36.08,102.82-23.14,30.88-59.74,53.02-80.82,57.61Z"/>
      <path class="cls-2" d="m110.4,256.83c13.73,10.67,27.5,21.27,41.17,32.01,23.37,18.37,46.63,36.86,70.03,55.18,2.87,2.24,4.16,4.52,4.12,8.29-.21,20.96-.11,41.93-.12,62.89,0,.8-.08,1.6-.16,3.2-28.2-9.82-51.76-25.79-71.2-47.61-28.72-32.24-43.82-70.05-45.05-113.2.4-.26.8-.51,1.2-.77Z"/>
    </g>
  </g>
</svg>