<?xml version="1.0" encoding="UTF-8"?>
<!DOCTYPE svg PUBLIC "-//W3C//DTD SVG 1.1//EN" "http://www.w3.org/Graphics/SVG/1.1/DTD/svg11.dtd">
<svg xmlns="http://www.w3.org/2000/svg" xmlns:xlink="http://www.w3.org/1999/xlink" version="1.1"
    width="138px" height="100px" viewBox="-0.5 -0.5 138 100">
    <defs />
    <g>
        <g>
            <path
                d="M 8 74 L 8 84 Q 8 94 18 94 L 58 94 Q 68 94 68 84 L 68 14 Q 68 4 78 4 L 118 4 Q 128 4 128 14 L 128 24"
                fill="none" stroke="#bfd6e9" stroke-width="9" stroke-miterlimit="10"
                pointer-events="stroke" />
        </g>
        <g>
            <path d="M 47 94 L 132 94" fill="none" stroke="#bfd6e9" stroke-width="9"
                stroke-miterlimit="10" pointer-events="stroke" />
        </g>
        <g>
            <path d="M 4 4 L 78 4" fill="none" stroke="#bfd6e9" stroke-width="9"
                stroke-miterlimit="10" pointer-events="stroke" />
        </g>
        <g>
            <path d="M 88 94 L 78 94 Q 68 94 68 84 L 68 64" fill="none" stroke="#bfd6e9"
                stroke-width="9" stroke-miterlimit="10" pointer-events="stroke" />
        </g>
        <g>
            <path d="M 68 34 L 68 14 Q 68 4 58 4 L 48 4" fill="none" stroke="#bfd6e9"
                stroke-width="9" stroke-miterlimit="10" pointer-events="stroke" />
        </g>
        <g>
            <path d="M 68 94 L 68 84" fill="none" stroke="#bfd6e9" stroke-width="9"
                stroke-miterlimit="10" pointer-events="stroke" />
        </g>
        <g>
            <path d="M 68 14 L 68 4" fill="none" stroke="#bfd6e9" stroke-width="9"
                stroke-miterlimit="10" pointer-events="stroke" />
        </g>
    </g>
</svg>